<svg width="108" height="127" viewBox="0 0 108 127" fill="none" xmlns="http://www.w3.org/2000/svg">
<path d="M10.8085 119.938C8.64916 119.938 6.74799 119.526 5.105 118.701C3.48548 117.877 2.22977 116.755 1.33786 115.336C0.445954 113.893 0 112.256 0 110.425C0 108.57 0.434219 106.933 1.30266 105.514C2.19456 104.072 3.40333 102.95 4.92897 102.148C6.4546 101.324 8.17974 100.912 10.1044 100.912C11.9586 100.912 13.6251 101.301 15.1038 102.08C16.6059 102.835 17.7912 103.934 18.6597 105.377C19.5281 106.796 19.9623 108.502 19.9623 110.494C19.9623 110.7 19.9506 110.94 19.9271 111.215C19.9036 111.467 19.8802 111.707 19.8567 111.936H4.47128V108.811H16.9697L14.8573 109.738C14.8573 108.776 14.6578 107.941 14.2588 107.231C13.8598 106.521 13.3082 105.972 12.6041 105.583C11.8999 105.171 11.0784 104.964 10.1396 104.964C9.20074 104.964 8.36751 105.171 7.6399 105.583C6.93576 105.972 6.38419 106.533 5.98517 107.265C5.58616 107.975 5.38666 108.822 5.38666 109.807V110.631C5.38666 111.638 5.60963 112.531 6.05559 113.31C6.52501 114.065 7.17047 114.649 7.99197 115.061C8.83693 115.45 9.82273 115.645 10.9493 115.645C11.9586 115.645 12.8388 115.496 13.5899 115.198C14.3644 114.901 15.0686 114.454 15.7023 113.859L18.6245 116.95C17.756 117.911 16.6646 118.656 15.3502 119.182C14.0358 119.686 12.5219 119.938 10.8085 119.938Z" fill="#0A5350"/>
<path d="M24.0062 119.663V95.6234H35.202C37.8777 95.6234 40.2365 96.1271 42.2785 97.1345C44.3205 98.1189 45.9166 99.5041 47.0667 101.29C48.2168 103.076 48.7918 105.193 48.7918 107.643C48.7918 110.07 48.2168 112.188 47.0667 113.996C45.9166 115.782 44.3205 117.179 42.2785 118.186C40.2365 119.171 37.8777 119.663 35.202 119.663H24.0062ZM29.7097 115.095H34.9203C36.5633 115.095 37.9833 114.798 39.1803 114.203C40.4008 113.584 41.3397 112.714 41.9969 111.593C42.6776 110.471 43.0179 109.154 43.0179 107.643C43.0179 106.109 42.6776 104.793 41.9969 103.694C41.3397 102.572 40.4008 101.713 39.1803 101.118C37.9833 100.5 36.5633 100.191 34.9203 100.191H29.7097V115.095Z" fill="#0A5350"/>
<path d="M52.7058 119.663V101.187H57.9517V106.407L57.2123 104.896C57.7756 103.591 58.6793 102.606 59.9233 101.942C61.1672 101.256 62.6811 100.912 64.4649 100.912V105.857C64.2302 105.834 64.019 105.823 63.8312 105.823C63.6435 105.8 63.4439 105.789 63.2327 105.789C61.7305 105.789 60.51 106.212 59.5712 107.059C58.6558 107.884 58.1981 109.177 58.1981 110.94V119.663H52.7058Z" fill="#0A5350"/>
<path d="M70.778 126.6C69.7922 126.6 68.8181 126.451 67.8558 126.154C66.8935 125.856 66.1072 125.444 65.4969 124.917L67.5037 121.105C67.9262 121.472 68.4074 121.758 68.9472 121.964C69.5105 122.17 70.0621 122.273 70.6019 122.273C71.3765 122.273 71.9868 122.09 72.4327 121.723C72.9021 121.38 73.3246 120.796 73.7002 119.972L74.686 117.705L75.1084 117.122L81.9034 101.187H87.1844L78.6291 120.796C78.0189 122.284 77.3147 123.452 76.5167 124.299C75.7421 125.146 74.8737 125.741 73.9114 126.085C72.9725 126.428 71.9281 126.6 70.778 126.6ZM74.017 120.384L65.5674 101.187H71.2357L77.7842 116.641L74.017 120.384Z" fill="#0A5350"/>
<path d="M94.0844 119.663L86.1276 101.187H91.796L98.4149 117.087H95.5983L102.464 101.187H107.745L99.7527 119.663H94.0844Z" fill="#0A5350"/>
<path d="M74.1169 40.2996C74.1169 34.5369 71.8277 29.0103 67.7529 24.9355C63.6781 20.8607 58.1515 18.5715 52.3889 18.5715C46.6262 18.5715 41.0996 20.8607 37.0248 24.9355C32.95 29.0103 30.6608 34.5369 30.6608 40.2996C30.6608 40.8463 30.6884 41.3931 30.7297 41.9307H74.048C74.0893 41.3977 74.1169 40.8463 74.1169 40.2996Z" fill="#0A5350"/>
<g style="mix-blend-mode:multiply" opacity="0.6">
<path d="M54.7965 18.7093C51.7578 18.3654 48.6807 18.6678 45.7671 19.5966C42.8535 20.5254 40.1691 22.0597 37.8901 24.0988C35.6111 26.1379 33.7889 28.6358 32.543 31.4286C31.2971 34.2214 30.6557 37.246 30.6609 40.3041C30.6609 40.8509 30.6884 41.3976 30.7298 41.9352H36.5052C36.4639 41.3976 36.4363 40.8509 36.4363 40.3041C36.4363 29.1162 43.9302 19.9085 54.7965 18.7093Z" fill="#0A5350"/>
</g>
<path d="M76.0293 56.7254H71.3565C67.2244 61.4338 61.43 64.3599 55.188 64.89C54.9537 64.89 54.7285 64.89 54.4896 64.89C46.0193 64.7742 37.93 61.3514 31.9489 55.3526C25.9679 49.3537 22.5693 41.2542 22.4787 32.7836C22.3881 24.313 25.6128 16.1426 31.4642 10.0173C37.3156 3.89186 45.3299 0.296891 53.7958 8.81416e-07C53.5661 8.81416e-07 53.3364 8.81416e-07 53.102 8.81416e-07C45.7534 -0.00152835 38.5415 1.98684 32.2319 5.75403C25.9224 9.52121 20.7506 14.9266 17.2657 21.3964C13.7809 27.8662 12.1129 35.1588 12.4389 42.5002C12.765 49.8416 15.0729 56.9577 19.1176 63.0931C23.1623 69.2285 28.7928 74.1541 35.4115 77.3471C42.0302 80.5402 49.39 81.8814 56.7095 81.2284C64.0291 80.5754 71.0352 77.9527 76.9842 73.6385C82.9332 69.3243 87.603 63.4798 90.4978 56.7254H76.0293Z" fill="#0A5350"/>
<g style="mix-blend-mode:multiply">
<path d="M75.8412 56.7254H71.1685C52.914 81.371 16.0926 71.125 12.596 46.1577C13.7938 54.9771 17.8499 63.1605 24.1429 69.4544C30.4359 75.7484 38.6187 79.8057 47.4379 81.0048C56.257 82.2039 65.2261 80.4787 72.9711 76.0934C80.7161 71.7082 86.8099 64.9048 90.3189 56.7254H75.8412Z" fill="#0A5350"/>
</g>
<path d="M92.5148 29.6722C90.4673 23.0995 86.3929 17.3431 80.8749 13.2269C75.3569 9.11062 68.6781 6.84552 61.7945 6.75578C54.9109 6.66604 48.1754 8.75626 42.5519 12.7273C36.9285 16.6983 32.7055 22.3465 30.4872 28.8635C33.11 23.9902 37.2844 20.1318 42.3486 17.8998C47.4128 15.6679 53.0771 15.1901 58.4437 16.5423C63.8102 17.8945 68.5718 20.9992 71.9738 25.3644C75.3758 29.7295 77.2234 35.1053 77.2239 40.6396C77.2239 41.2001 77.2009 41.7561 77.1641 42.3074H93.8519C93.9162 41.5493 93.9575 40.7866 93.9713 40.0101C93.9229 36.5166 93.4335 33.0431 92.5148 29.6722Z" fill="#0A5350"/>
<g style="mix-blend-mode:multiply" opacity="0.4">
<path d="M55.6618 7.27786C49.9218 8.30278 44.561 10.8462 40.1365 14.6437C35.7119 18.4413 32.3851 23.3544 30.5016 28.8726C33.1244 23.9994 37.2987 20.1409 42.363 17.909C47.4272 15.677 53.0915 15.1993 58.458 16.5515C63.8246 17.9036 68.5862 21.0084 71.9882 25.3735C75.3902 29.7387 77.2378 35.1145 77.2383 40.6487C77.2383 41.2092 77.2153 41.7652 77.1785 42.3166C78.5392 34.8524 77.0954 27.1487 73.1244 20.6838C69.1533 14.2189 62.9347 9.44812 55.6618 7.28705V7.27786Z" fill="#0A5350"/>
</g>
</svg>
<svg width="108" height="127" viewBox="0 0 108 127" fill="none" xmlns="http://www.w3.org/2000/svg">
<path d="M10.8085 119.938C8.64916 119.938 6.74799 119.526 5.105 118.701C3.48548 117.877 2.22977 116.755 1.33786 115.336C0.445954 113.893 0 112.256 0 110.425C0 108.57 0.434219 106.933 1.30266 105.514C2.19456 104.072 3.40333 102.95 4.92897 102.148C6.4546 101.324 8.17974 100.912 10.1044 100.912C11.9586 100.912 13.6251 101.301 15.1038 102.08C16.6059 102.835 17.7912 103.934 18.6597 105.377C19.5281 106.796 19.9623 108.502 19.9623 110.494C19.9623 110.7 19.9506 110.94 19.9271 111.215C19.9036 111.467 19.8802 111.707 19.8567 111.936H4.47128V108.811H16.9697L14.8573 109.738C14.8573 108.776 14.6578 107.941 14.2588 107.231C13.8598 106.521 13.3082 105.972 12.6041 105.583C11.8999 105.171 11.0784 104.964 10.1396 104.964C9.20074 104.964 8.36751 105.171 7.6399 105.583C6.93576 105.972 6.38419 106.533 5.98517 107.265C5.58616 107.975 5.38666 108.822 5.38666 109.807V110.631C5.38666 111.638 5.60963 112.531 6.05559 113.31C6.52501 114.065 7.17047 114.649 7.99197 115.061C8.83693 115.45 9.82273 115.645 10.9493 115.645C11.9586 115.645 12.8388 115.496 13.5899 115.198C14.3644 114.901 15.0686 114.454 15.7023 113.859L18.6245 116.95C17.756 117.911 16.6646 118.656 15.3502 119.182C14.0358 119.686 12.5219 119.938 10.8085 119.938Z" fill="#0A5350"/>
<path d="M24.0062 119.663V95.6234H35.202C37.8777 95.6234 40.2365 96.1271 42.2785 97.1345C44.3205 98.1189 45.9166 99.5041 47.0667 101.29C48.2168 103.076 48.7918 105.193 48.7918 107.643C48.7918 110.07 48.2168 112.188 47.0667 113.996C45.9166 115.782 44.3205 117.179 42.2785 118.186C40.2365 119.171 37.8777 119.663 35.202 119.663H24.0062ZM29.7097 115.095H34.9203C36.5633 115.095 37.9833 114.798 39.1803 114.203C40.4008 113.584 41.3397 112.714 41.9969 111.593C42.6776 110.471 43.0179 109.154 43.0179 107.643C43.0179 106.109 42.6776 104.793 41.9969 103.694C41.3397 102.572 40.4008 101.713 39.1803 101.118C37.9833 100.5 36.5633 100.191 34.9203 100.191H29.7097V115.095Z" fill="#0A5350"/>
<path d="M52.7058 119.663V101.187H57.9517V106.407L57.2123 104.896C57.7756 103.591 58.6793 102.606 59.9233 101.942C61.1672 101.256 62.6811 100.912 64.4649 100.912V105.857C64.2302 105.834 64.019 105.823 63.8312 105.823C63.6435 105.8 63.4439 105.789 63.2327 105.789C61.7305 105.789 60.51 106.212 59.5712 107.059C58.6558 107.884 58.1981 109.177 58.1981 110.94V119.663H52.7058Z" fill="#0A5350"/>
<path d="M70.778 126.6C69.7922 126.6 68.8181 126.451 67.8558 126.154C66.8935 125.856 66.1072 125.444 65.4969 124.917L67.5037 121.105C67.9262 121.472 68.4074 121.758 68.9472 121.964C69.5105 122.17 70.0621 122.273 70.6019 122.273C71.3765 122.273 71.9868 122.09 72.4327 121.723C72.9021 121.38 73.3246 120.796 73.7002 119.972L74.686 117.705L75.1084 117.122L81.9034 101.187H87.1844L78.6291 120.796C78.0189 122.284 77.3147 123.452 76.5167 124.299C75.7421 125.146 74.8737 125.741 73.9114 126.085C72.9725 126.428 71.9281 126.6 70.778 126.6ZM74.017 120.384L65.5674 101.187H71.2357L77.7842 116.641L74.017 120.384Z" fill="#0A5350"/>
<path d="M94.0844 119.663L86.1276 101.187H91.796L98.4149 117.087H95.5983L102.464 101.187H107.745L99.7527 119.663H94.0844Z" fill="#0A5350"/>
<path d="M74.1169 40.2996C74.1169 34.5369 71.8277 29.0103 67.7529 24.9355C63.6781 20.8607 58.1515 18.5715 52.3889 18.5715C46.6262 18.5715 41.0996 20.8607 37.0248 24.9355C32.95 29.0103 30.6608 34.5369 30.6608 40.2996C30.6608 40.8463 30.6884 41.3931 30.7297 41.9307H74.048C74.0893 41.3977 74.1169 40.8463 74.1169 40.2996Z" fill="#0A5350"/>
<g style="mix-blend-mode:multiply" opacity="0.6">
<path d="M54.7965 18.7093C51.7578 18.3654 48.6807 18.6678 45.7671 19.5966C42.8535 20.5254 40.1691 22.0597 37.8901 24.0988C35.6111 26.1379 33.7889 28.6358 32.543 31.4286C31.2971 34.2214 30.6557 37.246 30.6609 40.3041C30.6609 40.8509 30.6884 41.3976 30.7298 41.9352H36.5052C36.4639 41.3976 36.4363 40.8509 36.4363 40.3041C36.4363 29.1162 43.9302 19.9085 54.7965 18.7093Z" fill="#0A5350"/>
</g>
<path d="M76.0293 56.7254H71.3565C67.2244 61.4338 61.43 64.3599 55.188 64.89C54.9537 64.89 54.7285 64.89 54.4896 64.89C46.0193 64.7742 37.93 61.3514 31.9489 55.3526C25.9679 49.3537 22.5693 41.2542 22.4787 32.7836C22.3881 24.313 25.6128 16.1426 31.4642 10.0173C37.3156 3.89186 45.3299 0.296891 53.7958 8.81416e-07C53.5661 8.81416e-07 53.3364 8.81416e-07 53.102 8.81416e-07C45.7534 -0.00152835 38.5415 1.98684 32.2319 5.75403C25.9224 9.52121 20.7506 14.9266 17.2657 21.3964C13.7809 27.8662 12.1129 35.1588 12.4389 42.5002C12.765 49.8416 15.0729 56.9577 19.1176 63.0931C23.1623 69.2285 28.7928 74.1541 35.4115 77.3471C42.0302 80.5402 49.39 81.8814 56.7095 81.2284C64.0291 80.5754 71.0352 77.9527 76.9842 73.6385C82.9332 69.3243 87.603 63.4798 90.4978 56.7254H76.0293Z" fill="#0A5350"/>
<g style="mix-blend-mode:multiply">
<path d="M75.8412 56.7254H71.1685C52.914 81.371 16.0926 71.125 12.596 46.1577C13.7938 54.9771 17.8499 63.1605 24.1429 69.4544C30.4359 75.7484 38.6187 79.8057 47.4379 81.0048C56.257 82.2039 65.2261 80.4787 72.9711 76.0934C80.7161 71.7082 86.8099 64.9048 90.3189 56.7254H75.8412Z" fill="#0A5350"/>
</g>
<path d="M92.5148 29.6722C90.4673 23.0995 86.3929 17.3431 80.8749 13.2269C75.3569 9.11062 68.6781 6.84552 61.7945 6.75578C54.9109 6.66604 48.1754 8.75626 42.5519 12.7273C36.9285 16.6983 32.7055 22.3465 30.4872 28.8635C33.11 23.9902 37.2844 20.1318 42.3486 17.8998C47.4128 15.6679 53.0771 15.1901 58.4437 16.5423C63.8102 17.8945 68.5718 20.9992 71.9738 25.3644C75.3758 29.7295 77.2234 35.1053 77.2239 40.6396C77.2239 41.2001 77.2009 41.7561 77.1641 42.3074H93.8519C93.9162 41.5493 93.9575 40.7866 93.9713 40.0101C93.9229 36.5166 93.4335 33.0431 92.5148 29.6722Z" fill="#0A5350"/>
<g style="mix-blend-mode:multiply" opacity="0.4">
<path d="M55.6618 7.27786C49.9218 8.30278 44.561 10.8462 40.1365 14.6437C35.7119 18.4413 32.3851 23.3544 30.5016 28.8726C33.1244 23.9994 37.2987 20.1409 42.363 17.909C47.4272 15.677 53.0915 15.1993 58.458 16.5515C63.8246 17.9036 68.5862 21.0084 71.9882 25.3735C75.3902 29.7387 77.2378 35.1145 77.2383 40.6487C77.2383 41.2092 77.2153 41.7652 77.1785 42.3166C78.5392 34.8524 77.0954 27.1487 73.1244 20.6838C69.1533 14.2189 62.9347 9.44812 55.6618 7.28705V7.27786Z" fill="#0A5350"/>
</g>
</svg>
<svg width="108" height="127" viewBox="0 0 108 127" fill="none" xmlns="http://www.w3.org/2000/svg">
<path d="M10.8085 119.938C8.64916 119.938 6.74799 119.526 5.105 118.701C3.48548 117.877 2.22977 116.755 1.33786 115.336C0.445954 113.893 0 112.256 0 110.425C0 108.57 0.434219 106.933 1.30266 105.514C2.19456 104.072 3.40333 102.95 4.92897 102.148C6.4546 101.324 8.17974 100.912 10.1044 100.912C11.9586 100.912 13.6251 101.301 15.1038 102.08C16.6059 102.835 17.7912 103.934 18.6597 105.377C19.5281 106.796 19.9623 108.502 19.9623 110.494C19.9623 110.7 19.9506 110.94 19.9271 111.215C19.9036 111.467 19.8802 111.707 19.8567 111.936H4.47128V108.811H16.9697L14.8573 109.738C14.8573 108.776 14.6578 107.941 14.2588 107.231C13.8598 106.521 13.3082 105.972 12.6041 105.583C11.8999 105.171 11.0784 104.964 10.1396 104.964C9.20074 104.964 8.36751 105.171 7.6399 105.583C6.93576 105.972 6.38419 106.533 5.98517 107.265C5.58616 107.975 5.38666 108.822 5.38666 109.807V110.631C5.38666 111.638 5.60963 112.531 6.05559 113.31C6.52501 114.065 7.17047 114.649 7.99197 115.061C8.83693 115.45 9.82273 115.645 10.9493 115.645C11.9586 115.645 12.8388 115.496 13.5899 115.198C14.3644 114.901 15.0686 114.454 15.7023 113.859L18.6245 116.95C17.756 117.911 16.6646 118.656 15.3502 119.182C14.0358 119.686 12.5219 119.938 10.8085 119.938Z" fill="#0A5350"/>
<path d="M24.0062 119.663V95.6234H35.202C37.8777 95.6234 40.2365 96.1271 42.2785 97.1345C44.3205 98.1189 45.9166 99.5041 47.0667 101.29C48.2168 103.076 48.7918 105.193 48.7918 107.643C48.7918 110.07 48.2168 112.188 47.0667 113.996C45.9166 115.782 44.3205 117.179 42.2785 118.186C40.2365 119.171 37.8777 119.663 35.202 119.663H24.0062ZM29.7097 115.095H34.9203C36.5633 115.095 37.9833 114.798 39.1803 114.203C40.4008 113.584 41.3397 112.714 41.9969 111.593C42.6776 110.471 43.0179 109.154 43.0179 107.643C43.0179 106.109 42.6776 104.793 41.9969 103.694C41.3397 102.572 40.4008 101.713 39.1803 101.118C37.9833 100.5 36.5633 100.191 34.9203 100.191H29.7097V115.095Z" fill="#0A5350"/>
<path d="M52.7058 119.663V101.187H57.9517V106.407L57.2123 104.896C57.7756 103.591 58.6793 102.606 59.9233 101.942C61.1672 101.256 62.6811 100.912 64.4649 100.912V105.857C64.2302 105.834 64.019 105.823 63.8312 105.823C63.6435 105.8 63.4439 105.789 63.2327 105.789C61.7305 105.789 60.51 106.212 59.5712 107.059C58.6558 107.884 58.1981 109.177 58.1981 110.94V119.663H52.7058Z" fill="#0A5350"/>
<path d="M70.778 126.6C69.7922 126.6 68.8181 126.451 67.8558 126.154C66.8935 125.856 66.1072 125.444 65.4969 124.917L67.5037 121.105C67.9262 121.472 68.4074 121.758 68.9472 121.964C69.5105 122.17 70.0621 122.273 70.6019 122.273C71.3765 122.273 71.9868 122.09 72.4327 121.723C72.9021 121.38 73.3246 120.796 73.7002 119.972L74.686 117.705L75.1084 117.122L81.9034 101.187H87.1844L78.6291 120.796C78.0189 122.284 77.3147 123.452 76.5167 124.299C75.7421 125.146 74.8737 125.741 73.9114 126.085C72.9725 126.428 71.9281 126.6 70.778 126.6ZM74.017 120.384L65.5674 101.187H71.2357L77.7842 116.641L74.017 120.384Z" fill="#0A5350"/>
<path d="M94.0844 119.663L86.1276 101.187H91.796L98.4149 117.087H95.5983L102.464 101.187H107.745L99.7527 119.663H94.0844Z" fill="#0A5350"/>
<path d="M74.1169 40.2996C74.1169 34.5369 71.8277 29.0103 67.7529 24.9355C63.6781 20.8607 58.1515 18.5715 52.3889 18.5715C46.6262 18.5715 41.0996 20.8607 37.0248 24.9355C32.95 29.0103 30.6608 34.5369 30.6608 40.2996C30.6608 40.8463 30.6884 41.3931 30.7297 41.9307H74.048C74.0893 41.3977 74.1169 40.8463 74.1169 40.2996Z" fill="#0A5350"/>
<g style="mix-blend-mode:multiply" opacity="0.6">
<path d="M54.7965 18.7093C51.7578 18.3654 48.6807 18.6678 45.7671 19.5966C42.8535 20.5254 40.1691 22.0597 37.8901 24.0988C35.6111 26.1379 33.7889 28.6358 32.543 31.4286C31.2971 34.2214 30.6557 37.246 30.6609 40.3041C30.6609 40.8509 30.6884 41.3976 30.7298 41.9352H36.5052C36.4639 41.3976 36.4363 40.8509 36.4363 40.3041C36.4363 29.1162 43.9302 19.9085 54.7965 18.7093Z" fill="#0A5350"/>
</g>
<path d="M76.0293 56.7254H71.3565C67.2244 61.4338 61.43 64.3599 55.188 64.89C54.9537 64.89 54.7285 64.89 54.4896 64.89C46.0193 64.7742 37.93 61.3514 31.9489 55.3526C25.9679 49.3537 22.5693 41.2542 22.4787 32.7836C22.3881 24.313 25.6128 16.1426 31.4642 10.0173C37.3156 3.89186 45.3299 0.296891 53.7958 8.81416e-07C53.5661 8.81416e-07 53.3364 8.81416e-07 53.102 8.81416e-07C45.7534 -0.00152835 38.5415 1.98684 32.2319 5.75403C25.9224 9.52121 20.7506 14.9266 17.2657 21.3964C13.7809 27.8662 12.1129 35.1588 12.4389 42.5002C12.765 49.8416 15.0729 56.9577 19.1176 63.0931C23.1623 69.2285 28.7928 74.1541 35.4115 77.3471C42.0302 80.5402 49.39 81.8814 56.7095 81.2284C64.0291 80.5754 71.0352 77.9527 76.9842 73.6385C82.9332 69.3243 87.603 63.4798 90.4978 56.7254H76.0293Z" fill="#0A5350"/>
<g style="mix-blend-mode:multiply">
<path d="M75.8412 56.7254H71.1685C52.914 81.371 16.0926 71.125 12.596 46.1577C13.7938 54.9771 17.8499 63.1605 24.1429 69.4544C30.4359 75.7484 38.6187 79.8057 47.4379 81.0048C56.257 82.2039 65.2261 80.4787 72.9711 76.0934C80.7161 71.7082 86.8099 64.9048 90.3189 56.7254H75.8412Z" fill="#0A5350"/>
</g>
<path d="M92.5148 29.6722C90.4673 23.0995 86.3929 17.3431 80.8749 13.2269C75.3569 9.11062 68.6781 6.84552 61.7945 6.75578C54.9109 6.66604 48.1754 8.75626 42.5519 12.7273C36.9285 16.6983 32.7055 22.3465 30.4872 28.8635C33.11 23.9902 37.2844 20.1318 42.3486 17.8998C47.4128 15.6679 53.0771 15.1901 58.4437 16.5423C63.8102 17.8945 68.5718 20.9992 71.9738 25.3644C75.3758 29.7295 77.2234 35.1053 77.2239 40.6396C77.2239 41.2001 77.2009 41.7561 77.1641 42.3074H93.8519C93.9162 41.5493 93.9575 40.7866 93.9713 40.0101C93.9229 36.5166 93.4335 33.0431 92.5148 29.6722Z" fill="#0A5350"/>
<g style="mix-blend-mode:multiply" opacity="0.4">
<path d="M55.6618 7.27786C49.9218 8.30278 44.561 10.8462 40.1365 14.6437C35.7119 18.4413 32.3851 23.3544 30.5016 28.8726C33.1244 23.9994 37.2987 20.1409 42.363 17.909C47.4272 15.677 53.0915 15.1993 58.458 16.5515C63.8246 17.9036 68.5862 21.0084 71.9882 25.3735C75.3902 29.7387 77.2378 35.1145 77.2383 40.6487C77.2383 41.2092 77.2153 41.7652 77.1785 42.3166C78.5392 34.8524 77.0954 27.1487 73.1244 20.6838C69.1533 14.2189 62.9347 9.44812 55.6618 7.28705V7.27786Z" fill="#0A5350"/>
</g>
</svg>
